<svg id="Layer_1" data-name="Layer 1" xmlns="http://www.w3.org/2000/svg" viewBox="0 0 841.89 368.5"><defs><style>.cls-1{fill:#1e1656;}.cls-2{fill:#63b1e5;}</style></defs><title>WARR&amp;amp;CO_</title><path class="cls-1" d="M751.44,146.75c0-34.3-27.06-64.66-61.35-64.66H151.8c-34.29,0-61.35,30.36-61.35,64.66l-.07,8.67s.54-1.33,3.87-12,12.45-25,22-34.52a50,50,0,0,1,35.55-14.8h538.3a50,50,0,0,1,35.55,14.8c9.54,9.55,18.66,23.85,22,34.52s3.87,12,3.87,12Z"/><path class="cls-2" d="M90.44,221.76c0,34.3,27.06,64.66,61.35,64.66h538.3c34.29,0,61.35-30.36,61.35-64.66l.07-8.67s-.54,1.33-3.87,12-12.45,25-22,34.52a50,50,0,0,1-35.55,14.8H151.8a50,50,0,0,1-35.55-14.8c-9.54-9.55-18.66-23.85-22-34.52s-3.87-12-3.87-12Z"/><path class="cls-2" d="M465.85,179.33c0-13.42,8.6-22.37,17.55-27.64-4.24-6-5.62-10.67-5.62-15.83,0-9.06,9.29-21.1,24.66-21.1,5.85,0,10.78,1.15,13.88,2.87,1.38.8,1.49,1.49,1.49,2.87a128.92,128.92,0,0,1-.8,13.19c-.34,1.72-.69,2-1.15,2s-.69-.46-.69-2.18a13.76,13.76,0,0,0-3.56-9.75,15.82,15.82,0,0,0-11.47-5c-6.88,0-14.57,4.24-14.57,15,0,8.95,6.19,16.4,18.12,29.36,3.9,4.24,18,17.43,21.68,20.53,3.21-4.36,5.85-12,5.85-19a7.81,7.81,0,0,0-2.18-5.62c-1.49-1.49-3.9-1.84-5.62-1.84-.69,0-1.38-.23-1.38-.8s.92-.8,1.83-.8a128.57,128.57,0,0,1,13.76.8c1.72.23,2.06,1.15,2.06,2.29,0,9.29-6.31,20.88-11.35,27.07A100.63,100.63,0,0,0,544.19,197c3.67,2.18,9.52,4.47,13.65,4.47,1,0,1.61.11,1.61.8,0,.46-.92.8-1.95.8H546.25c-8.49,0-11.24-.8-23.86-10.78a38.51,38.51,0,0,1-28.67,12.39C473.65,204.68,465.85,189.31,465.85,179.33Zm53.56,10.78c-6.42-5.28-17.78-16.17-20.76-19.38s-10.32-11.36-13.53-16.06a21.94,21.94,0,0,0-10.32,19.27c0,14.34,10.09,24.66,22.94,24.66C508.4,198.6,515.51,194.12,519.41,190.11Z"/><path class="cls-1" d="M236.07,206.73,227.75,205l-16-43.77-2.42-8.33-2.28,8.46-17.46,45.39L182.09,205,155.37,131.4l-7.79-14.77h15.84l21.08,59.08L187.33,187l3.49-11.28,13.43-35.31-9-23.77h13.83l21.08,59.08L233,187l3.49-11.28,22.29-59.08h12.08Z"/><path class="cls-1" d="M286.4,116.63l8.19-1.75L322,190.21,328.7,205H314.06l-8.46-23.1H272.7L264,205H252.29Zm-10.07,55.05h25.92L291.1,140.8l-1.34-5.24-1.61,5.37Z"/><path class="cls-1" d="M381.6,205,358,171.82c-1.48.13-3.36.13-11.28.13v23L348,205H334.6V129l-1.75-12.35h25c14.77,0,29,8.46,29,26.59,0,10.47-6.58,20.28-17.19,25.24L397.18,205Zm-26.18-43a19.1,19.1,0,0,0,18.66-18.8c0-11-8.73-16.65-18.66-16.65h-8.73V162Z"/><path class="cls-1" d="M450.88,205l-23.63-33.17c-1.48.13-3.36.13-11.28.13v23L417.31,205H403.89V129l-1.75-12.35h25c14.77,0,29,8.46,29,26.59,0,10.47-6.58,20.28-17.19,25.24L466.46,205ZM424.7,162a19.09,19.09,0,0,0,18.67-18.8c0-11-8.73-16.65-18.67-16.65H416V162Z"/><path class="cls-1" d="M612.15,134.16c-6.31-6.58-13.7-10.21-22.56-10.21-17.32,0-29.27,17.72-29.27,36.39,0,21.62,15.17,35,30.21,35,12.22,0,26-11.28,26-11.28l3,9.94s-12.89,11.68-31.15,11.68c-20.81,0-41-15.31-41-44,0-27.53,19.07-47.67,42.7-47.67a40,40,0,0,1,28.2,11Z"/><path class="cls-1" d="M696.49,159c0,26.05-17.59,46.73-40.55,46.73-24.57,0-38.54-20.28-38.54-45.12,0-25.92,17.32-46.59,40.28-46.59C683.6,114,696.49,133.22,696.49,159ZM657,196.06c15.85,0,26.32-16.25,26.32-36.25S672.86,123.55,657,123.55s-26.45,16.25-26.45,36.25S641.17,196.06,657,196.06Z"/><path class="cls-1" d="M210.28,230.79a11.14,11.14,0,0,0-8.09-3.7c-5.22,0-9.15,5.41-9.15,11.6,0,7.21,4.62,11.13,9.61,11.13a13.14,13.14,0,0,0,9.33-4.34l1.11,4.76a17.59,17.59,0,0,1-11.32,4.3c-7.62,0-15-5.17-15-15.39,0-9.75,6.7-16.63,15.34-16.63a15.17,15.17,0,0,1,10.58,3.83Z"/><path class="cls-1" d="M231.9,253.94V240.45c0-4.34-.46-5.73-2.82-5.73a8.37,8.37,0,0,0-5.78,2.54V250l.51,4h-6.24V224.19l-.65-4.67,6.38-.69v13.86a11.13,11.13,0,0,1,7.35-2.77c3.51,0,7,1.89,7,5.91v14.23l.51,3.88Z"/><path class="cls-1" d="M242.94,233.43a14.06,14.06,0,0,1,9.66-3.51c3.83,0,7.9,1.57,7.9,6.38v12c0,2.77,2.36,5.54,2.36,5.54l-5.82.65a8,8,0,0,1-1.57-2.86,10.19,10.19,0,0,1-7,3c-4,0-6.75-3-6.75-6.05,0-4.85,4.81-8.69,13-9v-.88c0-3.23-1.2-4.62-3.14-4.62-3.65,0-6.33,3.47-6.33,3.47Zm11.83,14.88v-4.71c-2.26.18-7.12.69-7.12,4.16a2.5,2.5,0,0,0,2.73,2.54A7.25,7.25,0,0,0,254.76,248.31Z"/><path class="cls-1" d="M280.31,236.71a5.06,5.06,0,0,0-3.1-1.25c-2.4,0-5.27,3-5.27,6.56V250l.51,4h-6.24V235.37l-.65-4.67L272,230v4.21s2.26-4.3,6.28-4.3a5.17,5.17,0,0,1,3.83,1.71Z"/><path class="cls-1" d="M293.16,230.61H300l-1.48,4.3h-5.45V247.2c0,1.66.83,2.13,1.94,2.13a10.18,10.18,0,0,0,5.31-2.17l.6,5s-2.59,2.36-7.62,2.36c-3.93,0-5.91-2.08-5.91-7.49V234.91h-2.82v-4.3h2.82V226.5l6.19-.69Z"/><path class="cls-1" d="M322.4,242l-1.11,1.11H308.5c.23,3.74,2.13,6.7,5.78,6.7,4,0,7.76-3.28,7.76-3.28l.83,4.71a15.53,15.53,0,0,1-9.7,3.28c-6.88,0-10.53-5.73-10.53-11.69,0-6.75,3.28-12.94,11-12.94C321.71,229.92,322.31,238.56,322.4,242Zm-13.68-3h7.72c-.14-2.22-.92-5.22-3.37-5.22S309.23,236.16,308.73,239.07Z"/><path class="cls-1" d="M340.93,236.71a5.06,5.06,0,0,0-3.1-1.25c-2.4,0-5.27,3-5.27,6.56V250l.51,4h-6.24V235.37l-.65-4.67,6.38-.69v4.21s2.26-4.3,6.28-4.3a5.17,5.17,0,0,1,3.83,1.71Z"/><path class="cls-1" d="M363.71,242l-1.11,1.11H349.8c.23,3.74,2.13,6.7,5.78,6.7,4,0,7.76-3.28,7.76-3.28l.83,4.71a15.53,15.53,0,0,1-9.7,3.28c-6.88,0-10.53-5.73-10.53-11.69,0-6.75,3.28-12.94,11-12.94C363,229.92,363.61,238.56,363.71,242Zm-13.68-3h7.72c-.14-2.22-.92-5.22-3.37-5.22S350.54,236.16,350,239.07Z"/><path class="cls-1" d="M386.57,248.21c0,2.77,2.36,5.54,2.36,5.54l-5.82.65a6.9,6.9,0,0,1-1.57-2.73,9.75,9.75,0,0,1-6.33,2.82c-4.94,0-9.24-4.11-9.24-11.78,0-6.88,5-12.8,12.2-12.8.79,0,2.68.23,2.68.23v-6.28l-.65-4.67,6.38-.69Zm-5.73-.18V234.31a22.8,22.8,0,0,0-3.42-.28c-2.91,0-5.31,3.65-5.31,8.27,0,5,2.08,7.9,4.57,7.9C377.89,250.2,379.41,249.28,380.84,248Z"/><path class="cls-1" d="M413.32,223.45l3.93-1,9.43,25.74,2.59,5.73h-6.7l-2.63-7.16H409.72L407,253.94h-5.54ZM411.2,242h7.39l-3.19-9-.42-1.8-.46,1.85Z"/><path class="cls-1" d="M447.74,237.17a7.39,7.39,0,0,0-5.68-2.87c-4,0-5.73,3.79-5.73,7.95,0,3.88,1.76,7.58,5.54,7.58,4,0,7.58-3.7,7.58-3.7l.83,4.81a13.87,13.87,0,0,1-9.52,3.6c-6.88,0-10.3-5.91-10.3-11.87,0-6.75,4-12.75,11.46-12.75,5.68,0,8.46,3.1,8.46,3.1Z"/><path class="cls-1" d="M469.41,237.17a7.39,7.39,0,0,0-5.68-2.87c-4,0-5.73,3.79-5.73,7.95,0,3.88,1.76,7.58,5.54,7.58,4,0,7.58-3.7,7.58-3.7l.83,4.81a13.87,13.87,0,0,1-9.52,3.6c-6.88,0-10.3-5.91-10.3-11.87,0-6.75,4-12.75,11.46-12.75,5.68,0,8.46,3.1,8.46,3.1Z"/><path class="cls-1" d="M484.84,254.54c-7,0-10.67-6.14-10.67-12,0-6.88,4.39-12.66,12.24-12.66,6.05,0,10.63,3.65,10.63,11.83C497,248.63,492.56,254.54,484.84,254.54Zm.74-4.11c3.33,0,5.31-3.6,5.31-8.22s-2-8.18-5.31-8.18-5.31,3.56-5.31,8.18S482.25,250.43,485.58,250.43Z"/><path class="cls-1" d="M517.37,254.54a8.55,8.55,0,0,1-1.48-3.14,11.82,11.82,0,0,1-7.95,3.14c-3.51,0-7-1.89-7-5.91V235.32l-.65-4.67,6.38-.69v14c0,4.07.37,5.78,2.68,5.78a7.93,7.93,0,0,0,5.91-2.86v-11.6l-.65-4.67L521,230v18.2c0,2.77,2.36,5.54,2.36,5.54Z"/><path class="cls-1" d="M541.48,253.94V240.45c0-4.34-.46-5.73-2.82-5.73a8.26,8.26,0,0,0-5.78,2.63V250l.51,4h-6.24V235.32l-.65-4.67,6.38-.69v2.82a11.22,11.22,0,0,1,7.35-2.87c3.51,0,7,1.89,7,5.91v14.23l.51,3.88Z"/><path class="cls-1" d="M559.13,230.61H566l-1.48,4.3h-5.45V247.2c0,1.66.83,2.13,1.94,2.13a10.19,10.19,0,0,0,5.31-2.17l.6,5s-2.59,2.36-7.62,2.36c-3.93,0-5.91-2.08-5.91-7.49V234.91h-2.82v-4.3h2.82V226.5l6.19-.69Z"/><path class="cls-1" d="M571.1,233.43a14.06,14.06,0,0,1,9.66-3.51c3.83,0,7.9,1.57,7.9,6.38v12c0,2.77,2.36,5.54,2.36,5.54l-5.82.65a8,8,0,0,1-1.57-2.86,10.19,10.19,0,0,1-7,3c-4,0-6.75-3-6.75-6.05,0-4.85,4.81-8.69,13-9v-.88c0-3.23-1.2-4.62-3.14-4.62-3.65,0-6.33,3.47-6.33,3.47Zm11.83,14.88v-4.71c-2.26.18-7.12.69-7.12,4.16a2.5,2.5,0,0,0,2.73,2.54A7.25,7.25,0,0,0,582.92,248.31Z"/><path class="cls-1" d="M608.7,253.94V240.45c0-4.34-.46-5.73-2.82-5.73a8.26,8.26,0,0,0-5.78,2.63V250l.51,4h-6.24V235.32l-.65-4.67,6.38-.69v2.82a11.22,11.22,0,0,1,7.35-2.87c3.51,0,7,1.89,7,5.91v14.23l.51,3.88Z"/><path class="cls-1" d="M626.81,230.61h6.88l-1.48,4.3h-5.45V247.2c0,1.66.83,2.13,1.94,2.13a10.19,10.19,0,0,0,5.31-2.17l.6,5s-2.59,2.36-7.62,2.36c-3.93,0-5.91-2.08-5.91-7.49V234.91h-2.82v-4.3h2.82V226.5l6.19-.69Z"/><path class="cls-1" d="M638.59,247s3.74,3.23,7.35,3.23c1.66,0,3.37-.74,3.37-2.31,0-3.6-11.23-3.7-11.23-10.49,0-5.68,4.48-7.44,9.19-7.44a13.8,13.8,0,0,1,6.61,1.52l-1.06,4.62a10.19,10.19,0,0,0-6.51-2.08c-1.57,0-3,.92-3,2.17,0,3.74,11.27,3.33,11.27,11.09,0,4.71-3.46,7.25-8.73,7.25s-7.85-2.73-7.85-2.73Z"/></svg>